<?xml version="1.0" standalone="no" ?>
<!DOCTYPE svg PUBLIC "-//W3C//DTD SVG 20010904//EN" "http://www.w3.org/TR/2001/REC-SVG-20010904/DTD/svg10.dtd">
<svg
  version="1.0"
  xmlns="http://www.w3.org/2000/svg"
  width="24.000000pt"
  height="24.000000pt"
  viewBox="0 0 449.000000 385.000000"
  preserveAspectRatio="xMidYMid meet"
>

<g transform="translate(0.000000,385.000000) scale(0.100000,-0.100000)" fill="#000000" stroke="none">
<path
      d="M2445 3453 c-49 -26 -64 -42 -148 -168 -406 -604 -929 -1164 -1496
-1599 -109 -84 -139 -191 -84 -295 26 -46 221 -267 266 -300 29 -21 83 -18
114 7 74 59 109 76 164 80 72 5 121 -11 171 -56 103 -93 116 -247 30 -360 -35
-47 -49 -94 -38 -136 9 -36 249 -292 296 -316 48 -24 120 -26 163 -4 39 20
274 208 412 329 444 388 818 808 1162 1302 163 233 173 253 173 324 0 96 -19
125 -234 346 -98 101 -131 105 -217 28 -48 -43 -98 -58 -170 -53 -100 7 -172
73 -206 187 -20 69 -8 140 34 208 62 99 67 112 54 154 -16 53 -239 294 -295
320 -50 23 -111 24 -151 2z m-254 -1249 c195 -68 337 -152 394 -234 33 -47 65
-148 65 -203 0 -65 -29 -150 -69 -203 -53 -70 -130 -108 -232 -113 -101 -4
-174 18 -252 79 -117 89 -164 212 -174 460 -11 273 23 300 268 214z"
    />
<path
      d="M2054 2099 c-13 -22 -16 -176 -5 -249 29 -181 117 -280 254 -280 75
0 163 54 199 123 30 57 29 141 0 190 -58 92 -185 169 -344 207 -97 23 -95 23
-104 9z"
    />
</g>
</svg>
